<svg xmlns="http://www.w3.org/2000/svg" viewBox="0 0 1440 320"><path fill="#a2d9ff" fill-opacity="1" d="M0,96L30,85.3C60,75,120,53,180,42.7C240,32,300,32,360,69.3C420,107,480,181,540,192C600,203,660,149,720,106.7C780,64,840,32,900,21.3C960,11,1020,21,1080,21.3C1140,21,1200,11,1260,42.7C1320,75,1380,149,1410,186.7L1440,224L1440,320L1410,320C1380,320,1320,320,1260,320C1200,320,1140,320,1080,320C1020,320,960,320,900,320C840,320,780,320,720,320C660,320,600,320,540,320C480,320,420,320,360,320C300,320,240,320,180,320C120,320,60,320,30,320L0,320Z"></path></svg>